<svg width="50" height="50" viewBox="0 0 50 50" fill="none" xmlns="http://www.w3.org/2000/svg">
<rect width="50" height="50" rx="25" fill="#FCD7C1"/>
<path fill-rule="evenodd" clip-rule="evenodd" d="M19.4444 18.0556C19.4444 16.5821 20.0298 15.1691 21.0716 14.1272C22.1135 13.0853 23.5266 12.5 25 12.5C26.4734 12.5 27.8865 13.0853 28.9284 14.1272C29.9702 15.1691 30.5556 16.5821 30.5556 18.0556C30.5556 19.529 29.9702 20.9421 28.9284 21.9839C27.8865 23.0258 26.4734 23.6111 25 23.6111C23.5266 23.6111 22.1135 23.0258 21.0716 21.9839C20.0298 20.9421 19.4444 19.529 19.4444 18.0556ZM19.4444 26.3889C17.6027 26.3889 15.8363 27.1205 14.534 28.4229C13.2316 29.7252 12.5 31.4916 12.5 33.3333C12.5 34.4384 12.939 35.4982 13.7204 36.2796C14.5018 37.061 15.5616 37.5 16.6667 37.5H33.3333C34.4384 37.5 35.4982 37.061 36.2796 36.2796C37.061 35.4982 37.5 34.4384 37.5 33.3333C37.5 31.4916 36.7684 29.7252 35.466 28.4229C34.1637 27.1205 32.3973 26.3889 30.5556 26.3889H19.4444Z" fill="#F6782F"/>
</svg>
