<svg width="660" height="392" viewBox="0 0 660 392" fill="none" xmlns="http://www.w3.org/2000/svg">
<g clip-path="url(#clip0_296_1015)">
<rect y="36" width="660" height="332" rx="10" fill="#F1F1F2"/>
<g clip-path="url(#clip1_296_1015)">
<path d="M89.5878 439.398C83.2173 443.885 76.5998 448.303 69.0898 450.374C61.5798 452.446 52.9028 451.747 46.8619 446.862C39.1185 440.55 37.7181 429.258 38.6242 419.297C40.3679 399.018 48.9487 378.917 45.0359 358.926C43.5592 351.709 40.5107 344.905 36.1068 338.998C31.7028 333.091 26.0515 328.226 19.5541 324.747C13.0131 321.373 5.80939 319.479 -1.54605 319.2C-8.90148 318.92 -16.2284 320.261 -23.0071 323.128C-31.4232 326.764 -39.3039 333.734 -40.3062 342.831C-37.5603 351.283 -24.9704 358.267 -16.6092 361.231C-8.24799 364.194 1.04683 367.432 5.22057 375.253C8.84513 382.045 7.47219 390.264 6.59351 397.92C5.19753 410.912 5.69701 424.038 8.07629 436.887C9.86111 446.491 12.8541 456.247 19.3207 463.601C29.4255 475.099 46.2166 478.543 61.4425 476.91C76.6684 475.278 91.0431 469.391 105.706 465.014L89.5878 439.398Z" fill="#FF6434"/>
<g opacity="0.5">
<path d="M43.8142 366.239C44.4426 364.565 44.9564 362.851 45.3519 361.107C45.242 360.385 45.1184 359.657 44.9812 358.926C43.5045 351.709 40.456 344.905 36.0521 338.998C31.6481 333.091 25.9968 328.226 19.4994 324.747C12.9584 321.373 5.7547 319.479 -1.60074 319.2C-8.95618 318.92 -16.2831 320.261 -23.0618 323.128C-31.4779 326.764 -39.3586 333.734 -40.3608 342.831C-37.615 351.283 -25.0251 358.267 -16.6639 361.231C-8.30267 364.194 0.992142 367.432 5.16588 375.253C7.60971 379.836 7.77446 385.064 7.3763 390.346C8.90034 390.551 10.4409 390.606 11.9757 390.511C26.0071 389.646 38.8167 379.438 43.8142 366.239Z" fill="white"/>
</g>
<path d="M136.392 258.956C136.392 260.795 125.409 287.468 98.1969 309.078C70.9852 330.688 48.4827 355.989 48.9495 389.564C49.4163 423.139 70.1203 459.938 70.1203 459.938L91.5244 476.773L170.441 477.418C170.441 477.418 206.797 468.678 211.396 438.78C215.995 408.883 206.797 394.627 206.797 394.627L208.169 364.729C208.169 364.729 229.793 324.72 231.18 311.85C232.567 298.98 220.595 252.055 220.595 252.055L136.392 258.956Z" fill="#FF6434"/>
<path d="M180.573 345.754C179.916 348.67 179.763 351.677 180.12 354.645C180.585 357.852 181.549 360.968 182.975 363.879C184.712 367.453 186.864 370.81 189.387 373.881C192.064 377.174 194.879 380.138 197.281 382.882C199.684 385.626 201.908 388.178 203.556 390.442C204.885 392.209 206.082 394.071 207.139 396.013C207.524 396.699 207.757 397.261 207.935 397.632C208.114 398.002 208.183 398.208 208.155 398.222C207.689 397.559 207.267 396.867 206.892 396.15C205.755 394.276 204.508 392.471 203.158 390.744C201.469 388.535 199.286 386.052 196.801 383.335C194.316 380.618 191.529 377.654 188.824 374.334C186.274 371.21 184.108 367.792 182.371 364.153C180.955 361.174 180.028 357.987 179.625 354.713C179.36 352.504 179.453 350.266 179.9 348.086C180.011 347.494 180.167 346.912 180.367 346.344C180.41 346.139 180.479 345.941 180.573 345.754Z" fill="#263238"/>
<path d="M129.582 381.991C129.096 381.729 128.636 381.421 128.209 381.071C127.372 380.44 126.177 379.466 124.736 378.176C120.865 374.672 117.431 370.715 114.507 366.39L115.125 366.102L117.761 374.568L119.752 380.907L120.068 381.95L119.203 381.291C114.617 377.752 111.054 373.06 108.878 367.694C108.251 366.132 107.755 364.521 107.396 362.878C107.272 362.301 107.217 361.849 107.162 361.506C107.107 361.163 107.162 361.039 107.162 361.025C107.362 361.596 107.527 362.178 107.656 362.768C108.102 364.374 108.662 365.947 109.331 367.474C111.585 372.689 115.14 377.238 119.656 380.687L119.107 381.071C118.475 379.041 117.821 376.932 117.143 374.746C116.224 371.782 115.345 368.915 114.521 366.28L113.835 364.017L115.139 365.979C118.007 370.283 121.34 374.259 125.079 377.833C126.452 379.205 127.619 380.18 128.415 380.866C128.836 381.206 129.227 381.582 129.582 381.991Z" fill="#263238"/>
<g opacity="0.3">
<path d="M179.9 347.441C180.092 346.069 182.289 346.069 183.044 347.263C183.611 348.499 183.769 349.883 183.497 351.215C183.03 359.118 187.959 366.308 193.108 372.303C198.256 378.299 203.954 384.46 205.602 392.199C201.483 387.465 196.65 383.472 192.133 379.15C187.616 374.828 183.36 370.04 180.902 364.291C178.445 358.542 177.978 351.667 180.902 346.165" fill="black"/>
</g>
<path d="M189.483 151.578C189.483 151.578 155.16 156.901 147.828 159.81C140.497 162.719 110.457 178.251 105.734 193.042C105.734 193.042 103.386 209.713 110.759 230.225C113.436 237.703 135.225 263.004 140.401 265.899C145.577 268.794 221.404 255.334 221.404 255.334C225.962 249.16 239.074 227.701 238.964 211.62C238.827 191.437 231.591 168.742 231.591 168.742L189.483 151.578Z" fill="#FF6434"/>
<path d="M215.912 116.727C215.171 116.604 206.055 116.727 199.121 132.41C194.869 141.978 189.956 151.239 184.417 160.126L231.783 171.102C231.783 171.102 229.134 145.527 226.511 136.595C223.889 127.662 221.212 117.591 215.912 116.727Z" fill="#FF6434"/>
<g opacity="0.6">
<path d="M201.277 214.062C185.968 208.066 168.326 210.728 153.402 217.506C145.068 221.279 136.927 226.74 133.165 235.096C127.083 248.817 135.348 265.049 146.894 274.543C158.441 284.038 172.98 289.183 185.502 297.443C198.023 305.703 209.102 319.136 207.469 334.023L208.21 364.62C209.446 362.329 229.82 324.336 231.166 311.85C232.333 300.874 223.807 265.131 221.28 254.854C222.379 253.482 224.109 250.614 226.168 247.898C226.401 233.066 215.308 219.578 201.277 214.062Z" fill="white"/>
</g>
<path d="M185.432 208.19C185.528 207.847 185.548 207.487 185.491 207.135C185.433 206.783 185.3 206.449 185.1 206.153C184.9 205.858 184.639 205.61 184.333 205.427C184.028 205.243 183.686 205.128 183.332 205.089C179.443 204.603 175.494 205.147 171.882 206.667C171.474 206.783 171.097 206.985 170.775 207.259C170.452 207.534 170.193 207.875 170.014 208.258C169.936 208.689 169.966 209.132 170.1 209.548C170.234 209.965 170.469 210.342 170.783 210.646C171.708 211.758 172.899 212.619 174.245 213.149C175.591 213.679 177.049 213.862 178.485 213.68C179.92 213.498 181.287 212.958 182.458 212.108C183.629 211.259 184.567 210.128 185.185 208.821C185.282 208.616 185.364 208.405 185.432 208.19Z" fill="#263238"/>
<path d="M186.641 225.258C186.156 225.933 185.542 226.506 184.836 226.944C184.129 227.381 183.343 227.676 182.522 227.81C181.729 228.065 180.893 228.159 180.063 228.086C179.233 228.013 178.426 227.775 177.689 227.385C179.25 227.46 180.815 227.373 182.357 227.124C183.845 226.65 185.281 226.025 186.641 225.258Z" fill="#263238"/>
<path d="M106.599 196.17C106.599 196.17 90.4391 140.203 97.3313 135.483C104.223 130.763 110.566 136.348 110.566 136.348L146.249 163.405L106.599 196.17Z" fill="#FF6434"/>
<g opacity="0.6">
<path d="M111.06 184.864C117.16 176.42 125.247 169.606 134.606 165.024L110.099 145.815C109.607 145.302 109.01 144.902 108.349 144.641C107.688 144.381 106.978 144.266 106.269 144.306C105.629 144.529 105.06 144.919 104.621 145.435C104.182 145.951 103.888 146.575 103.77 147.242C102.864 150.631 103.77 156.133 104.484 159.591C106.461 168.633 108.603 177.304 111.06 184.919" fill="white"/>
</g>
<g opacity="0.6">
<path d="M223.669 163.789C214.959 158.804 205.158 156.029 195.126 155.707C199.757 146.844 204.38 137.98 208.993 129.117C209.624 127.895 210.434 126.551 211.739 126.276C212.387 126.218 213.039 126.334 213.628 126.611C214.216 126.889 214.721 127.318 215.089 127.854C217.244 130.475 218.644 135.648 219.358 138.968C221.212 147.681 222.804 156.119 223.642 163.789" fill="white"/>
</g>
<path d="M228.31 243.603C228.224 243.89 228.114 244.17 227.981 244.44C227.706 245.043 227.349 245.812 226.896 246.786C225.488 249.634 223.776 252.32 221.789 254.799C218.761 258.441 215.066 261.473 210.901 263.731C209.72 264.335 208.471 264.911 207.181 265.432C205.835 265.969 204.46 266.427 203.062 266.804C201.636 267.176 200.193 267.473 198.737 267.696C197.225 267.897 195.703 268.021 194.179 268.067C191.473 268.148 188.767 267.941 186.106 267.449L186.312 266.777C190.081 268.39 193.485 270.747 196.321 273.706L196.829 274.241H196.087C190.241 274.271 184.43 273.344 178.884 271.497C177.326 270.982 175.795 270.387 174.299 269.713C173.777 269.48 173.379 269.274 173.118 269.151C172.98 269.09 172.851 269.011 172.733 268.917C173.29 269.09 173.836 269.296 174.367 269.535C175.424 269.947 176.99 270.523 178.994 271.14C184.53 272.836 190.298 273.655 196.087 273.569L195.854 274.104C193.067 271.23 189.728 268.948 186.037 267.394L182.976 266.105L186.243 266.722C188.855 267.198 191.511 267.396 194.165 267.312C195.675 267.312 197.172 267.106 198.627 266.955C200.062 266.745 201.483 266.452 202.883 266.077C204.242 265.733 205.581 265.312 206.892 264.815C208.155 264.307 209.391 263.745 210.558 263.155C214.666 260.958 218.33 258.018 221.363 254.483C223.361 252.057 225.117 249.443 226.608 246.676C227.102 245.743 227.5 244.988 227.802 244.398C227.946 244.118 228.116 243.851 228.31 243.603Z" fill="#263238"/>
<path d="M207.634 329.865C207.761 330.387 207.835 330.92 207.854 331.457C207.95 332.486 208.046 333.981 208.156 335.82C208.362 339.511 208.54 344.601 208.623 350.227C208.705 355.852 208.623 360.943 208.623 364.634C208.623 366.472 208.513 367.968 208.444 368.997C208.449 369.537 208.389 370.076 208.266 370.602C208.167 370.073 208.13 369.534 208.156 368.997C208.156 367.817 208.156 366.349 208.156 364.634C208.156 360.778 208.06 355.77 208.005 350.227C207.95 344.684 207.813 339.689 207.744 335.847C207.744 334.119 207.744 332.664 207.662 331.47C207.589 330.938 207.58 330.399 207.634 329.865Z" fill="#263238"/>
<path d="M155.339 204.965C155.339 206.192 154.975 207.392 154.292 208.412C153.61 209.432 152.64 210.227 151.505 210.696C150.37 211.165 149.122 211.287 147.918 211.047C146.714 210.806 145.608 210.214 144.74 209.346C143.873 208.477 143.283 207.371 143.045 206.167C142.807 204.963 142.932 203.715 143.404 202.582C143.876 201.449 144.673 200.482 145.696 199.802C146.718 199.122 147.919 198.761 149.147 198.763C150.791 198.767 152.366 199.422 153.526 200.585C154.687 201.747 155.339 203.323 155.339 204.965Z" fill="#263238"/>
<path d="M207.798 195.484C207.801 196.711 207.439 197.912 206.759 198.933C206.079 199.955 205.11 200.752 203.977 201.223C202.843 201.695 201.595 201.82 200.39 201.582C199.185 201.344 198.078 200.755 197.209 199.888C196.34 199.021 195.748 197.916 195.507 196.713C195.266 195.509 195.389 194.262 195.858 193.128C196.327 191.994 197.122 191.024 198.143 190.342C199.164 189.66 200.364 189.296 201.592 189.296C203.236 189.296 204.812 189.947 205.976 191.107C207.139 192.268 207.794 193.842 207.798 195.484Z" fill="#263238"/>
<path d="M197.529 209.767C197.595 210.479 197.549 211.197 197.391 211.894C197.098 213.829 196.441 215.691 195.455 217.382C195.128 217.961 194.716 218.488 194.233 218.947C193.691 219.416 193.085 219.809 192.435 220.113C190.966 220.797 189.292 220.895 187.753 220.387C186.93 220.148 186.151 219.778 185.447 219.29C184.705 218.824 183.994 218.31 183.319 217.753C181.893 216.583 180.608 215.253 179.488 213.788L180.12 213.664L180.01 214.034C179.566 215.805 178.764 217.465 177.651 218.911C176.539 220.358 175.14 221.561 173.543 222.445C172.102 223.188 170.473 223.488 168.862 223.31C167.485 223.146 166.162 222.677 164.99 221.938C163.329 220.83 161.967 219.332 161.022 217.574C160.774 217.103 160.554 216.617 160.363 216.12C160.239 215.777 160.185 215.585 160.212 215.585C160.239 215.585 160.555 216.271 161.269 217.437C162.255 219.107 163.624 220.518 165.264 221.553C166.374 222.251 167.627 222.688 168.93 222.829C170.419 222.968 171.917 222.672 173.241 221.979C174.744 221.119 176.057 219.965 177.102 218.586C178.147 217.207 178.903 215.631 179.323 213.952L179.419 213.595L179.625 212.909L180.051 213.472C181.144 214.883 182.387 216.171 183.758 217.314C184.408 217.858 185.091 218.363 185.804 218.823C186.45 219.287 187.169 219.639 187.932 219.866C189.238 220.296 190.653 220.269 191.942 219.791C193.232 219.312 194.321 218.41 195.03 217.231C196.016 215.61 196.722 213.833 197.117 211.976C197.419 210.522 197.474 209.767 197.529 209.767Z" fill="#263238"/>
<g opacity="0.6">
<path d="M170.276 154.816L161.571 156.463C162.183 160.088 163.463 163.568 165.347 166.726C166.006 167.837 167.008 169.044 168.299 168.948C168.677 168.901 169.04 168.767 169.357 168.554C169.674 168.342 169.937 168.059 170.125 167.727C170.505 167.063 170.752 166.332 170.852 165.573C171.479 161.99 171.282 158.312 170.276 154.816Z" fill="white"/>
</g>
<path d="M250.497 219.002C249.905 218.948 249.32 218.829 248.754 218.645L244.072 217.479C240.118 216.505 234.626 215.311 228.489 214.323C222.352 213.335 216.764 212.8 212.7 212.498L207.895 212.155C207.3 212.144 206.707 212.08 206.124 211.963C206.709 211.865 207.303 211.832 207.895 211.867C209.035 211.867 210.641 211.867 212.728 211.991C223.369 212.498 233.921 214.173 244.196 216.985C246.173 217.534 247.752 218 248.836 218.357C249.411 218.513 249.968 218.73 250.497 219.002Z" fill="#263238"/>
<path d="M255.247 207.778C254.634 207.865 254.012 207.888 253.394 207.846H248.369C244.113 207.846 238.25 207.846 231.77 207.97C225.29 208.093 219.414 208.477 215.185 208.738L210.174 209.054C209.557 209.108 208.937 209.108 208.32 209.054C208.915 208.879 209.528 208.773 210.146 208.738C211.327 208.587 213.029 208.395 215.158 208.189C219.386 207.792 225.262 207.394 231.756 207.215C238.25 207.037 244.113 207.133 248.383 207.311C250.497 207.394 252.227 207.49 253.408 207.586C254.026 207.591 254.642 207.655 255.247 207.778Z" fill="#263238"/>
<path d="M254.713 235.014C254.097 234.754 253.504 234.442 252.942 234.081C251.83 233.422 250.196 232.503 248.191 231.337C242.944 228.442 237.546 225.831 232.018 223.516C226.473 221.259 220.813 219.295 215.062 217.63C212.865 216.985 211.067 216.491 209.818 216.148C209.165 216.009 208.526 215.812 207.909 215.558C208.578 215.6 209.24 215.711 209.886 215.887C211.149 216.134 212.975 216.559 215.199 217.149C226.846 220.252 238.022 224.909 248.425 230.994C250.415 232.16 252.008 233.161 253.065 233.875C253.648 234.204 254.199 234.585 254.713 235.014Z" fill="#263238"/>
<path d="M146.429 227.069C145.963 227.457 145.457 227.792 144.919 228.071L140.759 230.637C137.189 232.791 132.301 235.837 127.029 239.404C121.757 242.972 117.117 246.388 113.794 248.899L109.785 251.931C109.323 252.325 108.822 252.67 108.289 252.96C108.702 252.498 109.162 252.079 109.662 251.712C110.54 250.943 111.844 249.859 113.465 248.542C116.718 245.922 121.332 242.436 126.617 238.855C131.903 235.274 136.846 232.283 140.484 230.239C142.31 229.21 143.793 228.4 144.836 227.879C145.341 227.56 145.874 227.289 146.429 227.069Z" fill="#263238"/>
<path d="M145.452 222.226C145.276 222.362 145.082 222.472 144.875 222.555L143.159 223.365L136.83 226.232C131.489 228.661 124.117 232.064 116.071 235.974C108.026 239.884 100.79 243.575 95.5731 246.265L89.3949 249.462L87.7062 250.312C87.5131 250.424 87.3051 250.507 87.0884 250.559C87.2543 250.412 87.4389 250.287 87.6375 250.189L89.2576 249.215C90.6306 248.391 92.7586 247.225 95.3397 245.826C100.488 243.013 107.696 239.253 115.755 235.329C123.815 231.405 131.228 228.085 136.624 225.725C139.37 224.558 141.525 223.653 143.049 223.049L144.807 222.363C145.013 222.283 145.231 222.236 145.452 222.226Z" fill="#263238"/>
<path d="M137.833 220.182C137.122 220.461 136.386 220.676 135.637 220.826C134.264 221.183 132.163 221.718 129.637 222.404C124.585 223.776 117.637 225.876 110.155 228.661C102.672 231.446 96.0411 234.424 91.3182 236.688C88.9567 237.826 87.0483 238.773 85.744 239.432C85.0793 239.802 84.386 240.118 83.6709 240.378C84.287 239.928 84.939 239.529 85.6205 239.185C86.8836 238.444 88.7508 237.442 91.1122 236.235C103.351 230.043 116.245 225.243 129.555 221.924C132.108 221.293 134.181 220.826 135.623 220.552C136.351 220.379 137.089 220.256 137.833 220.182Z" fill="#263238"/>
<path d="M211.491 137.912C211.642 138.356 211.739 138.816 211.779 139.284C211.903 140.231 212.04 141.589 212.122 143.29C212.331 147.781 212.008 152.28 211.161 156.695L210.983 157.642L210.502 156.792C210.2 156.27 209.885 155.694 209.555 155.131L204.654 146.419L205.23 146.336C204.621 148.856 204.267 151.43 204.173 154.02C204.104 155.9 204.173 156.984 204.077 156.997C203.994 156.745 203.947 156.481 203.94 156.215C203.852 155.487 203.806 154.754 203.802 154.02C203.763 151.389 204.04 148.764 204.626 146.199L204.805 145.417L205.203 146.117L210.173 154.775L211.12 156.449L210.461 156.558C211.297 152.191 211.693 147.75 211.642 143.304C211.601 139.984 211.381 137.925 211.491 137.912Z" fill="#263238"/>
<path d="M121.537 168.523C119.807 165.924 117.82 163.506 115.605 161.306L116.141 161.114C115.894 163.446 115.605 166.053 115.303 168.838C115.303 169.209 115.221 169.579 115.18 169.922L115.042 171.212L114.507 170.032C112.654 165.916 111.02 162.266 109.88 159.604C109.205 158.197 108.632 156.744 108.164 155.255C108.994 156.568 109.72 157.944 110.333 159.371C111.583 161.978 113.285 165.628 115.152 169.716L114.48 169.826L114.603 168.729C114.919 165.984 115.235 163.336 115.509 161.017V160.373L115.976 160.825C117.619 162.424 119.062 164.217 120.273 166.163C120.81 166.882 121.236 167.677 121.537 168.523Z" fill="#263238"/>
<path d="M196.627 54.1605C194.004 76.6407 179.55 80.7743 177.135 86.7742C175.838 90.0132 174.125 98.2649 174.125 98.2649H150.628C150.628 98.2649 148.93 90.0132 147.618 86.7664C145.21 80.7743 130.749 76.6407 128.126 54.1605C126.397 39.3922 137.501 16.0713 162.373 16.0636C187.244 16.0559 198.34 39.3922 196.627 54.1605Z" fill="#FFEB34"/>
<path d="M150.008 62.4095L149.25 62.551L156.225 99.9108L156.984 99.7693L150.008 62.4095Z" fill="white"/>
<path d="M174.799 62.3839L167.811 99.7412L168.569 99.883L175.558 62.5256L174.799 62.3839Z" fill="white"/>
<path d="M162.38 74.7596C160.574 74.7596 158.753 73.3174 157.233 70.6954C157.14 70.5334 157.048 70.3638 156.963 70.1941C156.728 70.5277 156.423 70.8065 156.07 71.0115C155.717 71.2165 155.324 71.3428 154.918 71.3818C151.484 71.3818 150.095 64.2097 150.033 63.9089L150.411 63.8318C150.411 63.9089 151.8 70.9962 154.918 70.9962C155.294 70.9478 155.654 70.8178 155.974 70.6153C156.294 70.4128 156.566 70.1427 156.77 69.8239C155.111 66.5232 154.501 62.6364 155.458 60.9861C155.607 60.7085 155.83 60.4778 156.103 60.3198C156.375 60.1619 156.686 60.0828 157.001 60.0915C158.483 60.0915 159.316 61.2869 159.316 63.3768C159.244 65.6946 158.513 67.9441 157.21 69.8625C157.326 70.0784 157.441 70.2944 157.565 70.5026C158.398 71.9447 160.134 74.3586 162.372 74.3586C163.869 74.3586 165.366 73.194 166.593 71.0733C166.712 70.8728 166.82 70.6722 166.917 70.4717C166.587 70.1081 166.298 69.7099 166.053 69.2841C164.61 66.7854 164.309 63.1146 165.397 61.2097C165.565 60.8727 165.822 60.5881 166.141 60.3869C166.459 60.1856 166.826 60.0755 167.203 60.0684C167.492 60.0678 167.776 60.1485 168.021 60.3012C168.267 60.4539 168.465 60.6725 168.592 60.9321C169.626 62.7213 169.04 67.0245 167.388 70.3946C167.712 70.7266 168.098 70.9915 168.524 71.1741C168.951 71.3568 169.409 71.4535 169.873 71.4589C172.543 71.4589 174.557 64.3331 174.573 64.2636L174.943 64.3639C174.858 64.6724 172.836 71.8445 169.873 71.8445C168.876 71.8404 167.919 71.4507 167.203 70.7571C167.116 70.9267 167.023 71.0964 166.925 71.2661C166.007 72.8084 164.479 74.7441 162.372 74.7441L162.38 74.7596ZM167.211 60.4694C166.901 60.4751 166.599 60.5668 166.339 60.7344C166.079 60.9019 165.87 61.1386 165.737 61.4179C164.734 63.1686 165.035 66.7546 166.393 69.1299C166.601 69.4878 166.841 69.826 167.11 70.1401C168.654 66.9243 169.217 62.8061 168.268 61.1635C168.176 60.9589 168.028 60.7848 167.841 60.6618C167.654 60.5388 167.435 60.472 167.211 60.4694ZM156.994 60.4694C156.747 60.4615 156.504 60.5232 156.291 60.6473C156.078 60.7714 155.904 60.953 155.79 61.1712C154.926 62.6673 155.512 66.3459 157.032 69.4692C158.217 67.6499 158.877 65.539 158.938 63.3691C158.938 62.2971 158.684 60.4771 156.994 60.4771V60.4694Z" fill="white"/>
<path d="M176.887 97.2627H147.888V102.922H176.887V97.2627Z" fill="#263238"/>
<path d="M176.887 103.841H147.888V109.5H176.887V103.841Z" fill="#263238"/>
<path d="M176.887 110.419H147.888V116.078H176.887V110.419Z" fill="#263238"/>
<path d="M133.835 46.9809C134.313 35.4747 142.485 22.8426 154.67 21.7321C143.797 26.0816 137.608 36.3847 133.835 46.9809Z" fill="white"/>
<path d="M162.866 8.80701C162.334 5.89545 162.334 2.91156 162.866 0C163.395 2.91192 163.395 5.89509 162.866 8.80701Z" fill="#FFEB34"/>
<path d="M142.635 13.9585C140.728 11.6957 139.248 9.10634 138.266 6.31604C140.17 8.58074 141.65 11.1696 142.635 13.9585Z" fill="#FFEB34"/>
<path d="M127.693 28.533C124.909 27.5272 122.331 26.0251 120.084 24.0996C122.867 25.1073 125.445 26.6092 127.693 28.533Z" fill="#FFEB34"/>
<path d="M122.044 48.6158C119.131 49.1438 116.146 49.1438 113.232 48.6158C116.145 48.0838 119.131 48.0838 122.044 48.6158Z" fill="#FFEB34"/>
<path d="M127.2 68.8365C124.936 70.7438 122.345 72.225 119.552 73.2083C121.817 71.3031 124.408 69.8221 127.2 68.8365Z" fill="#FFEB34"/>
<path d="M197.06 69.6848C199.842 70.6937 202.419 72.1955 204.668 74.1182C201.884 73.1137 199.306 71.6114 197.06 69.6848Z" fill="#FFEB34"/>
<path d="M202.708 49.6031C205.62 49.0749 208.602 49.0749 211.513 49.6031C208.603 50.135 205.619 50.135 202.708 49.6031Z" fill="#FFEB34"/>
<path d="M197.554 29.3814C199.816 27.4759 202.404 25.9948 205.193 25.0096C202.932 26.9164 200.344 28.3976 197.554 29.3814Z" fill="#FFEB34"/>
<path d="M182.968 14.452C183.977 11.6685 185.481 9.08989 187.407 6.84033C186.395 9.62247 184.892 12.2006 182.968 14.452Z" fill="#FFEB34"/>
</g>
<path d="M411.762 336.359H586.417V367.757H411.762V336.359Z" fill="#455A64"/>
<path d="M308 336.359H411.958V367.757H308V336.359Z" fill="#37474F"/>
<path d="M415.625 339.615H586.417V364.501H415.625V339.615Z" fill="white"/>
<path d="M575.368 359.388C562.055 359.568 548.742 359.689 535.429 359.751L495.491 359.865L455.563 359.751C442.25 359.689 428.938 359.568 415.625 359.388C428.938 359.202 442.25 359.077 455.563 359.015L495.491 358.901L535.429 359.015C548.742 359.077 562.055 359.202 575.368 359.388Z" fill="#DBDBDB"/>
<path d="M575.368 354.505C562.055 354.678 548.742 354.798 535.429 354.868L495.491 354.982L455.563 354.868C442.25 354.805 428.938 354.684 415.625 354.505C428.938 354.332 442.25 354.208 455.563 354.132L495.491 354.028L535.429 354.132C548.742 354.208 562.055 354.332 575.368 354.505Z" fill="#DBDBDB"/>
<path d="M575.368 349.621C562.055 349.793 548.742 349.914 535.429 349.984L495.491 350.098L455.563 349.994C442.25 349.918 428.938 349.793 415.625 349.621C428.938 349.448 442.25 349.324 455.563 349.247L495.491 349.144L535.429 349.258C548.742 349.32 562.055 349.441 575.368 349.621Z" fill="#DBDBDB"/>
<path d="M575.368 344.737C562.055 344.917 548.742 345.041 535.429 345.11L495.491 345.214L455.563 345.11C442.25 345.041 428.938 344.917 415.625 344.737C428.938 344.557 442.25 344.436 455.563 344.374L495.491 344.26L535.429 344.374C548.742 344.436 562.055 344.557 575.368 344.737Z" fill="#DBDBDB"/>
<path d="M429.415 392L441.316 379.453L453.216 392V359.492L450.672 354.505H426.871L429.415 359.492V392Z" fill="#FF6434"/>
<path d="M630 336.483L328.521 336.483V307.076L630 307.076V336.483Z" fill="#C7C7C7"/>
<path d="M472.812 330.739H356.86V313.09H472.812V330.739Z" fill="white"/>
<path d="M609.647 315.817H500.798V313.09H609.647V315.817Z" fill="white"/>
<path d="M609.647 323.138H500.798V320.411H609.647V323.138Z" fill="white"/>
<path d="M609.647 330.479H500.798V327.752H609.647V330.479Z" fill="white"/>
<path d="M330.827 266.532H579.927V306.941H330.827V266.532Z" fill="#FF6434"/>
<path d="M357.224 266.532H380.444V306.941H357.224V266.532Z" fill="#263238"/>
<path d="M395.687 266.532H404.69V306.941H395.687V266.532Z" fill="#263238"/>
<path d="M488.771 298.034C457.337 298.034 431.854 292.978 431.854 286.742C431.854 280.505 457.337 275.45 488.771 275.45C520.205 275.45 545.688 280.505 545.688 286.742C545.688 292.978 520.205 298.034 488.771 298.034Z" fill="white"/>
<path d="M486.249 266.543H326.973V244L486.249 244V266.543Z" fill="#A6A6A6"/>
<path d="M577.06 266.543H486.249V244H577.06V266.543Z" fill="#A6A6A6"/>
<path d="M486.249 264.199H326.973V246.333L486.249 246.333V264.199Z" fill="white"/>
<path d="M337.223 250.004C349.643 249.879 362.059 249.793 374.472 249.744L411.711 249.661L448.959 249.744C461.372 249.786 473.785 249.872 486.198 250.004C473.792 250.142 461.379 250.232 448.959 250.273L411.711 250.346L374.472 250.273C362.101 250.225 349.685 250.135 337.223 250.004Z" fill="#DBDBDB"/>
<path d="M337.223 253.508C349.643 253.384 362.059 253.298 374.472 253.249L411.711 253.166L448.959 253.249C461.372 253.291 473.785 253.377 486.198 253.508C473.792 253.64 461.379 253.73 448.959 253.778L411.711 253.851L374.472 253.778C362.101 253.73 349.685 253.64 337.223 253.508Z" fill="#DBDBDB"/>
<path d="M337.223 257.013C349.643 256.889 362.059 256.802 374.472 256.754L411.711 256.671L448.959 256.754C461.372 256.795 473.785 256.882 486.198 257.013C473.792 257.144 461.379 257.234 448.959 257.283L411.711 257.355L374.472 257.283C362.101 257.234 349.685 257.144 337.223 257.013Z" fill="#DBDBDB"/>
<path d="M337.223 260.518C349.643 260.394 362.059 260.307 374.472 260.259L411.711 260.176L448.959 260.259C461.372 260.3 473.785 260.387 486.198 260.518C473.792 260.649 461.379 260.739 448.959 260.788L411.711 260.86L374.472 260.788C362.101 260.719 349.685 260.629 337.223 260.518Z" fill="#DBDBDB"/>
<path d="M458.046 277.358L450.475 269.384L442.905 277.358V256.682L444.525 253.509H459.666L458.046 256.682V277.358Z" fill="#455A64"/>
</g>
<defs>
<clipPath id="clip0_296_1015">
<rect width="660" height="392" rx="10" fill="white"/>
</clipPath>
<clipPath id="clip1_296_1015">
<path d="M0 0H255V368H10C4.47715 368 0 363.523 0 358V0Z" fill="white"/>
</clipPath>
</defs>
</svg>
